PathFileType	4	(X/Y/Z)	D:\TRACE\v60_Jaco2_6-2-23\BothDRS_Motion2_3-v60.trc
DataRate	CameraRate	NumFrames	NumMarkers	Units	OrigDataRate	OrigDataStartFrame	OrigNumFrames
100.00	100.00	      31	9	mm	100.00	3751	      7500
Frame#	Time	front left toe			Front right toe			aft left toe			aft right toe			Arm			FL body			FR body			AL Body			AR Body			
		X1	Y1	Z1	X2	Y2	Z2	X3	Y3	Z3	X4	Y4	Z4	X5	Y5	Z5	X6	Y6	Z6	X7	Y7	Z7	X8	Y8	Z8	X9	Y9	Z9	

3751	37.500	-174.12343	36.51351	-155.99593	203.14792	24.85919	-181.72231	-156.11229	-5.98075	457.09189	234.27275	2.52321	441.75430	117.05333	1120.44055	-626.96539	-74.96703	596.21210	-294.61047	84.84758	590.11877	-302.18250	-32.67587	524.96289	648.24542	122.75038	512.86017	640.65784	
3752	37.510	-174.60081	30.66407	-155.33641	202.15733	24.35896	-181.88771	-157.23761	-5.04614	456.96698	233.55095	2.06861	442.59824	116.89635	1119.61536	-628.16223	-74.76845	595.34784	-295.08432	84.99674	589.33582	-302.62137	-33.40118	526.21869	647.80969	122.48749	514.39880	640.37579	
3753	37.520	-175.16522	27.83144	-156.80376	200.93565	23.96583	-182.05525	-157.91150	-4.04192	456.94495	232.02596	3.49291	441.64722	116.46149	1118.85388	-629.52539	-74.91883	594.53302	-295.60828	85.19615	588.82678	-302.87491	-34.07480	528.08667	647.34967	121.84198	516.20709	640.18353	
3754	37.530	-177.89391	23.37276	-158.44737	200.14201	23.75228	-182.11691	-158.61397	-2.99253	456.67349	230.24782	3.07344	442.34491	115.95798	1117.72461	-631.45544	-74.98257	594.68457	-295.86121	84.81715	588.62531	-302.90088	-34.17649	529.75958	647.17023	121.46865	517.72681	639.98468	
3755	37.540	-180.52252	25.47158	-157.67758	197.66370	24.95185	-182.90610	-160.43176	-0.46523	456.39047	229.35747	4.03195	442.36826	115.03900	1116.13318	-633.50989	-75.09043	596.12769	-296.02298	85.27619	589.54755	-303.51959	-35.04322	530.61877	646.92578	120.96672	518.69843	639.88763	
3756	37.550	-180.12579	23.88070	-158.00383	192.88289	27.88066	-180.52254	-160.17249	3.30070	456.32462	228.52353	4.03524	442.12411	114.25254	1114.99316	-635.06464	-75.63887	597.29919	-296.80276	84.52787	590.99353	-303.90408	-35.34196	531.22339	646.23761	120.59872	519.44922	639.32025	
3757	37.560	-180.62802	24.63050	-158.54781	188.96075	32.35671	-176.48537	-158.35751	7.08967	459.52890	227.28238	4.52161	441.38885	113.86472	1114.79834	-635.19489	-75.72288	597.66486	-297.34305	84.44167	591.47968	-304.73511	-35.45886	532.30151	645.82336	120.17021	520.48145	638.69165	
3758	37.570	-181.83026	23.39286	-159.21826	186.10228	41.50166	-174.80872	-154.99084	17.73612	460.57733	226.47531	5.56559	441.13452	114.34736	1116.25354	-635.64429	-76.29601	597.61884	-298.38330	83.83752	590.93451	-305.69919	-35.54148	533.89978	644.89911	120.34675	521.81201	637.84882	
3759	37.580	-183.69240	22.81984	-158.99840	184.90503	51.69949	-173.81308	-153.89214	28.67191	460.38123	224.74899	6.19408	441.01291	114.59066	1118.22607	-636.76044	-77.06911	596.89209	-298.82425	82.72648	589.93109	-306.40115	-35.31018	535.38464	644.44165	120.56796	523.01782	637.25909	
3760	37.590	-184.03323	22.52375	-159.23364	184.24146	63.35387	-174.70763	-154.39398	42.16474	460.33630	224.18968	7.02487	440.85681	115.88733	1119.11609	-637.82617	-78.15076	596.29724	-299.34515	81.69461	589.28632	-306.93869	-34.63729	536.34210	644.19153	121.17523	524.06244	636.60138	
3761	37.600	-185.20590	22.14012	-159.23915	185.47305	76.52178	-176.81705	-155.62682	55.19080	459.51263	223.41200	7.51984	440.39380	115.89820	1118.02356	-638.88623	-79.24106	595.45630	-299.85550	80.39851	588.77777	-307.69781	-34.48465	536.83667	643.80328	121.50581	524.75616	635.97894	
3762	37.610	-186.65695	21.87417	-159.30608	187.83789	89.87491	-179.29555	-156.13142	68.61961	458.52261	222.13319	7.93731	439.96448	115.29708	1116.36682	-639.78613	-80.27505	595.26154	-300.28809	79.53752	588.29767	-308.39880	-34.28640	537.41565	642.90210	121.86707	525.11023	635.01117	
3763	37.620	-187.32904	21.33933	-159.80003	190.54984	103.06756	-182.02005	-156.32504	81.80998	457.07904	221.73155	8.70128	439.66882	114.12855	1114.26208	-641.64935	-81.45773	594.88690	-300.99619	78.51105	587.73120	-309.20151	-33.59104	537.96283	642.44592	122.28356	525.53802	634.41467	
3764	37.630	-188.73289	20.75849	-159.94710	192.25342	115.68575	-184.56468	-155.39429	93.93475	455.61252	220.51897	9.34566	439.33505	112.52111	1112.36206	-643.96637	-81.93769	594.10767	-301.42960	77.71396	586.89435	-309.95966	-33.12256	538.22284	642.09485	122.50106	525.80475	633.68835	
3765	37.640	-190.04314	20.49969	-160.41080	193.22124	127.47457	-186.69153	-153.18956	104.99923	454.30408	219.57404	10.24784	439.16544	109.81533	1110.44641	-646.14911	-82.39010	593.37299	-301.92422	77.30345	586.22888	-310.94061	-33.21198	539.50134	641.22400	122.48307	526.74786	632.80090	
3766	37.650	-191.01530	19.99971	-160.72659	193.56561	138.48886	-188.61559	-150.42532	115.31544	453.10114	218.40343	11.14396	438.99741	108.01604	1108.70447	-648.07483	-83.29953	592.43781	-302.72366	76.84094	585.34882	-311.98795	-33.16444	540.41956	640.68207	122.61854	527.73029	632.19257	
3767	37.660	-192.12517	19.72712	-160.66739	194.48714	147.23154	-189.88824	-147.94087	124.39655	452.02783	217.07513	11.50489	438.57748	105.85812	1106.98145	-650.11658	-83.58378	591.26398	-303.47916	75.67038	584.18317	-312.54678	-32.59100	541.68420	640.41577	122.72520	528.89093	631.14618	
3768	37.670	-193.28943	19.38327	-161.07552	195.28763	151.69629	-190.63905	-146.94691	132.87860	450.52939	216.40060	12.51327	438.32889	104.35707	1105.30737	-652.22418	-84.60677	590.37811	-304.05124	75.58665	582.98883	-313.37701	-32.36182	542.51086	639.45435	122.82013	529.96674	630.50916	
3769	37.680	-194.04915	18.62627	-161.23964	196.94839	154.63213	-191.77698	-146.07286	136.43433	449.76709	215.54152	13.26327	438.01013	102.64759	1103.77002	-654.46136	-85.51793	589.26935	-304.87967	74.26009	582.21881	-314.69916	-32.23863	544.10883	638.73822	123.43283	531.37488	629.43842	
3770	37.690	-195.10571	18.21651	-161.45335	198.71304	154.93808	-192.87309	-144.80273	137.65414	449.16489	214.15233	13.73406	437.47107	101.58044	1101.70154	-656.60016	-86.71687	588.21649	-305.44025	73.12386	581.31445	-315.43076	-31.19767	545.13220	638.41962	123.94691	532.72009	628.51514	
3771	37.700	-196.05183	17.73588	-161.53809	200.93414	152.93221	-194.19020	-144.12738	136.47177	449.11871	213.69899	14.89161	437.16281	100.68164	1099.97900	-658.71454	-87.71345	587.40375	-306.08633	72.19861	580.51160	-316.21985	-30.60263	546.59399	637.67780	124.58573	534.19305	627.52148	
3772	37.710	-196.97475	17.25225	-161.63647	202.08752	149.14790	-195.85585	-140.99149	132.11559	449.60483	212.32104	15.37086	436.74173	98.95177	1098.22253	-660.96967	-88.77919	586.83862	-306.91965	70.99765	580.34076	-317.40106	-30.08816	547.92139	636.63000	124.97001	535.53107	626.53406	
3773	37.720	-198.40112	17.48766	-161.93431	202.55820	144.07082	-197.72354	-139.31960	128.10519	449.29526	211.64485	16.17331	436.46805	97.34002	1096.86145	-663.21460	-89.75678	586.27051	-307.79294	69.86711	579.84991	-318.50787	-29.42160	549.09460	635.86548	125.55890	536.71722	625.18677	
3774	37.730	-199.44934	17.00793	-162.23584	202.63388	137.87708	-200.00188	-137.03181	123.13663	448.79138	211.04213	17.18415	436.18579	94.95031	1096.01086	-665.51727	-90.85953	585.72382	-308.85193	69.69125	579.32782	-319.82904	-29.07856	550.33911	634.66321	125.94633	538.02264	623.95325	
3775	37.740	-200.37614	16.14612	-162.42813	202.62184	130.74001	-202.50546	-133.82602	116.15636	448.14969	209.68294	17.56548	435.66983	92.82794	1095.21411	-667.70270	-91.55521	584.96619	-310.04849	68.36219	578.51135	-320.99515	-28.37579	551.50421	633.71051	126.70043	539.21790	622.67834	
3776	37.750	-200.99655	16.02991	-162.80824	202.52415	122.63194	-205.18199	-131.89333	108.43117	446.54007	209.06944	18.48518	435.14383	90.52119	1094.64136	-669.84167	-92.39481	584.50970	-311.23831	67.54692	577.98090	-322.46881	-28.03023	552.58038	632.32513	127.02537	540.48218	621.23230	
3777	37.760	-202.06999	15.51559	-162.94165	202.96353	113.63774	-208.40109	-128.23352	97.99767	445.22195	208.23859	19.17300	434.78595	88.06560	1093.96411	-671.99744	-93.21029	583.78424	-312.39392	66.47752	577.76270	-324.02917	-27.31484	553.74072	630.82922	127.62080	541.47583	619.58813	
3778	37.770	-202.55722	14.87650	-163.17479	203.64629	103.84378	-211.67671	-127.29587	88.33699	442.50427	207.19974	19.90873	434.36444	85.88090	1092.94092	-674.68146	-94.08410	583.15198	-313.73785	65.83825	577.25085	-325.52103	-26.81141	554.26520	629.79517	128.06593	542.61761	617.90149	
3779	37.780	-203.63008	14.82262	-163.64822	204.82881	95.09645	-215.73691	-125.42294	78.00325	440.10785	206.41035	20.68262	434.16629	83.96038	1091.77576	-677.07343	-95.20728	582.69354	-315.18292	64.80143	576.81097	-327.10883	-25.92426	555.26172	628.39221	128.50784	542.95441	615.69849	
3780	37.790	-204.75635	14.33670	-163.80342	205.72681	86.74635	-219.61900	-121.94419	67.76318	437.02087	206.03136	21.53892	433.53262	82.28202	1090.63989	-679.40302	-95.44805	581.94916	-316.36313	63.66893	576.57837	-328.96790	-25.69729	556.03101	626.59607	129.13222	544.24408	613.78729	
3781	37.800	-205.67108	13.91587	-164.21660	206.06071	77.84468	-222.97971	-119.77054	59.08091	433.55087	204.82906	21.99508	433.03125	79.75208	1089.42407	-682.14520	-96.76969	581.25726	-318.26111	63.09653	576.17578	-330.68292	-25.24760	556.58386	624.90784	128.81363	545.60059	612.50574	
